<?xml version="1.0" encoding="utf-8"?>
<!-- Generator: Adobe Illustrator 19.2.1, SVG Export Plug-In . SVG Version: 6.00 Build 0)  -->
<svg version="1.1" id="OpenGL_ES_2_" xmlns="http://www.w3.org/2000/svg" xmlns:xlink="http://www.w3.org/1999/xlink" x="0px"
	 y="0px" viewBox="460.2 -190.6 1500 500" enable-background="new 460.2 -190.6 1500 500" xml:space="preserve">
<g id="OpenGL_ES_1_">
	<g id="OpenGL_ES">
		<g>
			<path fill="#BA2A8D" d="M615.403,21.714c3.762-11.769,9.412-22.192,16.937-31.261c7.525-9.065,16.895-16.308,28.096-21.711
				c11.201-5.402,24.246-8.11,39.129-8.11c14.877,0,27.923,2.708,39.124,8.11c11.201,5.403,20.571,12.646,28.096,21.711
				c7.525,9.067,13.175,19.492,16.937,31.261c3.763,11.77,5.651,24.019,5.651,36.749c0,12.73-1.888,24.988-5.651,36.753
				c-3.762,11.77-9.412,22.195-16.937,31.262c-7.525,9.066-16.895,16.266-28.096,21.582c-11.2,5.311-24.247,7.977-39.124,7.977
				c-14.883,0-27.929-2.666-39.129-7.977c-11.202-5.316-20.571-12.516-28.096-21.582c-7.525-9.064-13.175-19.492-16.937-31.262
				c-3.763-11.768-5.643-24.021-5.643-36.753C609.759,45.732,611.64,33.483,615.403,21.714z M638.304,86.418
				c2.455,9.164,6.31,17.41,11.571,24.738c5.255,7.334,12.003,13.225,20.244,17.678c8.234,4.455,18.048,6.674,29.446,6.674
				c11.393,0,21.206-2.219,29.446-6.674c8.234-4.453,14.982-10.344,20.243-17.678c5.255-7.328,9.111-15.574,11.565-24.738
				c2.456-9.166,3.683-18.463,3.683-27.888c0-9.425-1.227-18.713-3.683-27.879c-2.454-9.165-6.31-17.412-11.565-24.746
				c-5.261-7.328-12.009-13.218-20.243-17.672c-8.24-4.453-18.054-6.68-29.446-6.68c-11.398,0-21.212,2.227-29.446,6.68
				c-8.24,4.454-14.988,10.344-20.244,17.672c-5.261,7.334-9.116,15.581-11.571,24.746c-2.455,9.166-3.676,18.454-3.676,27.879
				C634.628,67.955,635.849,77.252,638.304,86.418z"/>
			<path fill="#BA2A8D" d="M826.365,32.878v16.136h0.395c3.219-6.605,8.284-11.411,15.192-14.408
				c6.908-2.998,14.5-4.497,22.792-4.497c9.201,0,17.221,1.691,24.055,5.069c6.828,3.382,12.503,7.945,17.03,13.7
				c4.526,5.761,7.938,12.395,10.243,19.917c2.302,7.523,3.455,15.506,3.455,23.947c0,8.445-1.115,16.428-3.338,23.951
				c-2.226,7.525-5.6,14.088-10.127,19.689c-4.528,5.602-10.208,10.018-17.036,13.236c-6.834,3.219-14.77,4.834-23.827,4.834
				c-2.918,0-6.18-0.309-9.781-0.92c-3.607-0.621-7.173-1.613-10.701-2.996c-3.528-1.381-6.871-3.27-10.017-5.65
				c-3.146-2.381-5.792-5.334-7.938-8.875h-0.395v61.471H806.63V32.878H826.365z M896.422,75.217
				c-1.456-5.291-3.67-10.014-6.655-14.156c-2.984-4.144-6.815-7.445-11.484-9.899c-4.677-2.454-10.147-3.684-16.42-3.684
				c-6.588,0-12.177,1.309-16.766,3.918c-4.596,2.608-8.345,6.02-11.256,10.239c-2.912,4.219-5.015,9.02-6.316,14.391
				c-1.302,5.373-1.949,10.818-1.949,16.338c0,5.836,0.685,11.477,2.066,16.92c1.375,5.453,3.559,10.246,6.544,14.391
				c2.986,4.146,6.847,7.482,11.597,10.014c4.75,2.533,10.491,3.799,17.227,3.799c6.736,0,12.361-1.301,16.876-3.908
				c4.516-2.611,8.154-6.064,10.912-10.363c2.75-4.293,4.743-9.203,5.97-14.731c1.222-5.525,1.838-11.201,1.838-17.035
				C898.605,85.924,897.878,80.511,896.422,75.217z"/>
			<path fill="#BA2A8D" d="M1020.197,144.334c-8.919,6.748-20.139,10.121-33.671,10.121c-9.536,0-17.807-1.535-24.801-4.602
				c-7.001-3.07-12.885-7.371-17.653-12.895c-4.768-5.525-8.345-12.127-10.726-19.809c-2.381-7.672-3.725-16.041-4.034-25.098
				c0-9.057,1.382-17.346,4.158-24.871c2.77-7.523,6.654-14.049,11.657-19.576c5.002-5.526,10.93-9.819,17.774-12.891
				c6.848-3.071,14.355-4.607,22.515-4.607c10.621,0,19.43,2.196,26.436,6.575c7.007,4.387,12.626,9.962,16.858,16.728
				c4.229,6.773,7.161,14.156,8.774,22.148c1.616,8,2.271,15.611,1.962,22.842h-89.215c-0.152,5.211,0.457,10.15,1.838,14.826
				c1.383,4.678,3.604,8.814,6.676,12.418c3.07,3.604,6.98,6.471,11.742,8.617c4.756,2.146,10.355,3.219,16.803,3.219
				c8.283,0,15.073-1.918,20.365-5.76c5.295-3.844,8.783-9.685,10.475-17.533h19.368
				C1034.884,127.539,1029.117,137.588,1020.197,144.334z M1015.417,67.929c-1.764-4.133-4.139-7.695-7.125-10.684
				c-2.991-2.984-6.521-5.359-10.578-7.124c-4.065-1.764-8.549-2.646-13.452-2.646c-5.058,0-9.623,0.884-13.681,2.646
				c-4.065,1.765-7.55,4.176-10.461,7.235c-2.912,3.067-5.212,6.629-6.897,10.688c-1.688,4.061-2.683,8.389-2.992,12.984h68.292
				C1018.218,76.435,1017.181,72.07,1015.417,67.929z"/>
			<path fill="#BA2A8D" d="M1071.083,32.878v18.904h0.37c8.179-14.445,21.148-21.675,38.907-21.675
				c7.869,0,14.434,1.08,19.688,3.232c5.249,2.151,9.493,5.148,12.737,8.991c3.244,3.844,5.521,8.414,6.834,13.719
				c1.308,5.303,1.967,11.184,1.967,17.641v78.395h-19.737V71.439c0-7.369-2.159-13.206-6.47-17.51
				c-4.318-4.299-10.245-6.453-17.788-6.453c-6.008,0-11.208,0.927-15.6,2.771c-4.394,1.844-8.051,4.453-10.975,7.832
				c-2.923,3.382-5.12,7.333-6.581,11.861c-1.468,4.533-2.193,9.486-2.193,14.865v67.279h-19.738V32.878H1071.083z"/>
			<path fill="#BA2A8D" d="M1288.03,150.793c-8.91,3.756-17.91,5.639-26.99,5.639c-14.334,0-27.221-2.498-38.668-7.482
				c-11.447-4.988-21.103-11.859-28.963-20.619c-7.864-8.752-13.893-19.041-18.084-30.859c-4.195-11.816-6.292-24.561-6.292-38.215
				c0-14.001,2.091-27.004,6.271-39c4.185-11.99,10.196-22.451,18.042-31.385c7.847-8.931,17.486-15.931,28.929-21.014
				c11.441-5.077,24.326-7.617,38.66-7.617c9.609,0,18.912,1.45,27.908,4.343c9,2.898,17.125,7.154,24.379,12.768
				c7.252,5.614,13.236,12.534,17.955,20.756c4.719,8.229,7.605,17.666,8.652,28.323h-39.314
				c-2.449-10.479-7.168-18.344-14.156-23.586c-6.992-5.242-15.469-7.865-25.424-7.865c-9.264,0-17.129,1.797-23.592,5.386
				c-6.465,3.589-11.707,8.406-15.729,14.445c-4.021,6.044-6.945,12.916-8.777,20.62c-1.84,7.704-2.752,15.667-2.752,23.895
				c0,7.882,0.92,15.542,2.758,22.98s4.77,14.139,8.789,20.088c4.02,5.953,9.27,10.723,15.748,14.312
				c6.469,3.59,14.346,5.385,23.623,5.385c13.643,0,24.178-3.442,31.617-10.324c7.438-6.883,11.768-16.863,12.996-29.939h-41.412
				v-30.79h78.52v101.199h-26.127l-4.184-21.23C1305.073,140.435,1296.944,147.037,1288.03,150.793z"/>
			<path fill="#BA2A8D" d="M1409.456-35.026v152.375h91.217v34.734h-132.271v-187.11H1409.456z"/>
		</g>
		<path fill="#BA2A8D" d="M1215.298,175.347c-62.815,38.201-156.897,59.947-261.866,59.947
			c-189.121,0-342.434-78.75-342.434-175.897c0-97.146,153.312-175.897,342.434-175.897c105.356,0,199.819,22.148,262.633,60.595
			c-68.562-64.413-191.5-109.673-332.062-109.695C668.724-165.635,494.189-64.927,494.17,59.339
			c-0.019,124.26,174.484,225.03,389.763,225.061C1023.938,284.426,1146.555,239.308,1215.298,175.347z"/>
		<g>
			<path fill="#BA2A8D" d="M1562.974-35.382h139.959v34.598h-98.809v40.101h90.682v31.976h-90.682v45.865h100.904v34.598h-142.055
				V-35.382z"/>
			<path fill="#BA2A8D" d="M1753.005,89.636c0,24.898,19.395,34.598,41.41,34.598c14.416,0,36.43-4.191,36.43-23.324
				c0-20.184-28.043-23.59-55.562-30.93c-27.781-7.338-55.826-18.083-55.826-53.204c0-38.266,36.17-56.611,69.979-56.611
				c39.053,0,74.959,17.034,74.959,60.28h-39.838c-1.311-22.539-17.299-28.307-36.955-28.307c-13.104,0-28.305,5.505-28.305,21.229
				c0,14.414,8.91,16.25,55.824,28.308c13.629,3.405,55.562,12.056,55.562,54.515c0,34.334-26.998,60.02-77.844,60.02
				c-41.41,0-80.199-20.443-79.674-66.572h39.838v-0.002H1753.005z"/>
		</g>
		
			<line fill="#BA2A8D" stroke="#BA2A8D" stroke-width="11.6449" stroke-linecap="round" x1="1530.692" y1="-87.695" x2="1530.692" y2="205.904"/>
	</g>
</g>
<g id="TM" enable-background="new    ">
	<path fill="#BA2A8D" d="M1896.241,131.801h-7.268v18.9h-6.346v-18.9h-7.266v-5.459h20.879V131.801z"/>
	<path fill="#BA2A8D" d="M1899.073,126.342h9.348l4.195,16.239h0.068l4.197-16.239h9.348v24.359h-5.971V132.21h-0.068l-5.117,18.491
		h-4.844l-5.119-18.491h-0.068v18.491h-5.969V126.342z"/>
</g>
</svg>
