<?xml version="1.0" encoding="utf-8"?>
<!-- Generator: Adobe Illustrator 16.0.4, SVG Export Plug-In . SVG Version: 6.00 Build 0)  -->
<!DOCTYPE svg PUBLIC "-//W3C//DTD SVG 1.1 Tiny//EN" "http://www.w3.org/Graphics/SVG/1.1/DTD/svg11-tiny.dtd">
<svg version="1.1" baseProfile="tiny" id="Vulkan" xmlns="http://www.w3.org/2000/svg" xmlns:xlink="http://www.w3.org/1999/xlink"
	 x="0px" y="0px" width="1300px" height="500px" viewBox="0 0 1300 500" xml:space="preserve">
<g>
	<path fill="#AC162C" d="M724.1,385.06h-40.57c0,0,0-98.97,0-129.66c12.96,7.22,30.09,20.54,40.57,33.32V385.06z"/>
	<g>
		<path fill="#AC162C" d="M381.75,385.06h-50.58l-66.01-204.03h46.01l45.44,143.45h0.57l46-143.45h46.29L381.75,385.06z"/>
		<path fill="#AC162C" d="M585.51,385.06h-38.58v-20.57h-0.85c-5.15,8.58-11.81,14.77-20.01,18.58c-8.19,3.81-16.57,5.71-25.15,5.71
			c-10.86,0-19.76-1.43-26.72-4.28c-6.95-2.85-12.43-6.91-16.43-12.14c-4.01-5.24-6.82-11.62-8.44-19.15
			c-1.61-7.52-2.42-15.86-2.42-25v-90.88h40.58v83.44c0,12.19,1.91,21.29,5.72,27.29c3.81,6.01,10.57,9,20.29,9
			c11.05,0,19.05-3.28,24-9.86c4.96-6.58,7.43-17.39,7.43-32.44v-77.44h40.59V385.06z"/>
	</g>
	<polygon fill="#AC162C" points="730.84,296.19 730.74,290.47 781.89,237.33 829.91,237.33 774.18,291.62 836.19,385.06 
		787.04,385.06 	"/>
	<path fill="#AC162C" d="M843.62,282.76c0.57-9.52,2.96-17.43,7.15-23.72c4.19-6.29,9.52-11.33,16-15.14
		c6.48-3.81,13.77-6.53,21.87-8.14c8.09-1.62,16.24-2.43,24.43-2.43c7.43,0,14.95,0.52,22.57,1.57c7.63,1.05,14.57,3.1,20.86,6.15
		c6.28,3.05,11.43,7.29,15.44,12.71c4,5.43,6,12.62,6,21.58v76.87c0,6.67,0.38,13.06,1.14,19.15c0.76,6.1,2.1,10.67,4.01,13.72
		h-41.15c-0.76-2.28-1.38-4.62-1.86-7c-0.47-2.38-0.81-4.8-1-7.29c-6.48,6.68-14.11,11.34-22.87,14.01c-8.76,2.66-17.72,4-26.86,4
		c-7.05,0-13.63-0.86-19.71-2.57c-6.1-1.71-11.44-4.38-16-8c-4.58-3.62-8.16-8.19-10.72-13.72c-2.57-5.52-3.86-12.09-3.86-19.71
		c0-8.38,1.48-15.29,4.43-20.72c2.96-5.43,6.76-9.76,11.44-13c4.67-3.24,10-5.67,16-7.29c6-1.62,12.05-2.91,18.14-3.86
		c6.1-0.94,12.1-1.71,18.01-2.28c5.91-0.57,11.14-1.43,15.71-2.57c4.58-1.15,8.19-2.81,10.86-5.01c2.67-2.19,3.91-5.38,3.72-9.57
		c0-4.38-0.72-7.86-2.15-10.43c-1.43-2.57-3.33-4.57-5.71-6c-2.38-1.43-5.14-2.38-8.29-2.86c-3.15-0.48-6.52-0.72-10.14-0.72
		c-8,0-14.29,1.71-18.86,5.15c-4.57,3.43-7.24,9.14-8,17.15H843.62z M937.35,312.77c-1.72,1.53-3.86,2.71-6.43,3.57
		c-2.57,0.87-5.33,1.58-8.29,2.15c-2.95,0.57-6.05,1.05-9.28,1.43c-3.24,0.38-6.48,0.85-9.72,1.43c-3.05,0.57-6.05,1.34-9,2.28
		c-2.95,0.96-5.53,2.24-7.72,3.86c-2.19,1.62-3.95,3.67-5.29,6.14c-1.33,2.48-2,5.62-2,9.43c0,3.62,0.67,6.67,2,9.14
		c1.34,2.48,3.15,4.43,5.43,5.86c2.29,1.43,4.95,2.43,8,3c3.05,0.57,6.19,0.85,9.43,0.85c8,0,14.2-1.33,18.58-3.99
		c4.38-2.67,7.63-5.86,9.71-9.58c2.09-3.71,3.39-7.47,3.85-11.28c0.48-3.81,0.71-6.86,0.72-9.14V312.77z"/>
	<path fill="#AC162C" d="M1004.21,237.33h38.59v20.57h0.85c5.14-8.57,11.81-14.81,20-18.71c8.19-3.91,16.58-5.86,25.14-5.86
		c10.87,0,19.77,1.48,26.73,4.43c6.95,2.96,12.42,7.05,16.43,12.29c4,5.24,6.81,11.62,8.43,19.14c1.62,7.53,2.43,15.86,2.43,25.01
		v90.87h-40.57v-83.44c0-12.2-1.91-21.29-5.71-27.29c-3.82-6-10.58-9-20.3-9c-11.05,0-19.04,3.29-24,9.86
		c-4.96,6.56-7.43,17.38-7.43,32.43v77.44h-40.58V237.33z"/>
	<g>
		<path fill="#AC162C" d="M612.37,211.84v173.23h40.58V234.21C639.93,226.23,626.36,218.74,612.37,211.84z"/>
	</g>
	<path fill="#AC162C" d="M198.43,219.21c23.52-68.89,164.15-94.16,314.15-56.43c89.97,22.62,163.49,66.5,211.51,109.89
		c-21.79-57.55-127.44-139.59-272.91-167.71c-164.48-31.8-326.71-3.85-346.79,69.14c-14.5,52.73,49.18,114.5,147.66,156.74
		C207.81,295.02,186.29,254.78,198.43,219.21z"/>
	<g>
		<path fill="#AC162C" d="M724.16,247.62v-66.59h-40.59v20.22C700.88,216.71,714.61,232.45,724.16,247.62z"/>
	</g>
</g>
<g>
	<path fill="#AC162C" d="M1214.98,363.43c0,12.26-9.63,21.89-22.15,21.89c-12.4,0-22.29-9.63-22.29-21.89
		c0-12,9.89-21.63,22.29-21.63C1205.35,341.8,1214.98,351.43,1214.98,363.43z M1176.08,363.43c0,9.63,7.12,17.27,16.88,17.27
		c9.49,0,16.48-7.65,16.48-17.14c0-9.63-6.99-17.41-16.62-17.41C1183.2,346.16,1176.08,353.94,1176.08,363.43z M1189.39,374.77
		h-5.01v-21.63c1.98-0.4,4.75-0.66,8.31-0.66c4.09,0,5.93,0.66,7.52,1.58c1.19,0.92,2.11,2.64,2.11,4.75c0,2.37-1.85,4.22-4.48,5.01
		v0.26c2.11,0.79,3.3,2.37,3.96,5.27c0.66,3.3,1.05,4.62,1.58,5.41h-5.41c-0.66-0.79-1.05-2.77-1.71-5.27
		c-0.4-2.37-1.71-3.43-4.48-3.43h-2.37V374.77z M1189.53,362.51h2.37c2.77,0,5.01-0.92,5.01-3.17c0-1.98-1.45-3.3-4.62-3.3
		c-1.32,0-2.24,0.13-2.77,0.26V362.51z"/>
</g>
</svg>
